Coordinates
version=1
nRows=9
nColumns=24
inDegrees=yes

Units are S.I. units (second, meters, Newtons, ...)
Angles are in degrees.

endheader
time	pelvis_tilt	pelvis_list	pelvis_rotation	pelvis_tx	pelvis_ty	pelvis_tz	hip_flexion_r	hip_adduction_r	hip_rotation_r	knee_angle_r	ankle_angle_r	subtalar_angle_r	mtp_angle_r	hip_flexion_l	hip_adduction_l	hip_rotation_l	knee_angle_l	ankle_angle_l	subtalar_angle_l	mtp_angle_l	lumbar_extension	lumbar_bending	lumbar_rotation
      0.89200000	      5.94067807	     -2.02069359	      5.41926021	     -0.38753314	      0.92194424	      0.33307196	      3.54226226	      8.64164747	     -6.63173196	    -19.89559101	     11.81718078	     -0.41788130	      2.31899535	      6.03653116	     -7.50556600	     -4.79657577	    -65.18417393	      6.44753308	     -4.23080086	      6.94414899	    -11.31204873	      5.84624147	     -2.85233356
      0.89616667	      5.94616759	     -1.88469430	      5.14728837	     -0.38282037	      0.92290459	      0.33369629	      2.95328288	      8.56134849	     -6.39763143	    -19.42099561	     11.79632396	     -0.27008375	      2.36869435	      6.59638593	     -7.29469800	     -5.07424676	    -64.77046552	      6.83696264	     -4.38461752	      6.85623597	    -11.37029364	      5.64900267	     -2.69946735
      0.90033333	      5.99193553	     -1.74721683	      4.86383676	     -0.37809463	      0.92388879	      0.33434693	      2.30570198	      8.48383505	     -6.13923699	    -18.91632542	     11.79261013	     -0.14194971	      2.42844781	      7.08951117	     -7.09325074	     -5.37020762	    -64.29350496	      7.16115716	     -4.53657073	      6.74455302	    -11.46870127	      5.45386705	     -2.44976784
      0.90450000	      6.00360062	     -1.61587480	      4.55826099	     -0.37336281	      0.92477258	      0.33500237	      1.71216146	      8.39733316	     -5.89587246	    -18.44332309	     11.77287987	      0.00556731	      2.46623731	      7.60370047	     -6.90203620	     -5.69582329	    -63.77376650	      7.49013988	     -4.68635525	      6.67305264	    -11.48890005	      5.28704890	     -2.28348199
      0.90866667	      6.08123484	     -1.48711480	      4.25358431	     -0.36866314	      0.92571001	      0.33569193	      1.02601138	      8.32450440	     -5.60175260	    -17.92051889	     11.78377180	      0.10354690	      2.53591624	      8.03362434	     -6.72562370	     -6.01846369	    -63.20173511	      7.73550791	     -4.84652689	      6.53442859	    -11.64515156	      5.08098185	     -1.92341754
      0.91283333	      6.10006614	     -1.36292359	      3.90702463	     -0.36397077	      0.92649826	      0.33640120	      0.44104654	      8.23401592	     -5.32175349	    -17.47029888	     11.75289242	      0.25097224	      2.57991303	      8.50951863	     -6.55916511	     -6.39351853	    -62.59481281	      8.02787724	     -5.01433332	      6.44593058	    -11.69243963	      4.90871033	     -1.73331066
      0.91700000	      6.18497082	     -1.24024067	      3.58497221	     -0.35927837	      0.92735181	      0.33709621	     -0.24995823	      8.15322595	     -5.02373378	    -16.94669969	     11.77389597	      0.33554565	      2.66077939	      8.90173343	     -6.39733885	     -6.73647787	    -61.92851598	      8.21804251	     -5.18283204	      6.27838613	    -11.82278152	      4.72903927	     -1.33332227
      0.92116667	      6.23870682	     -1.12694625	      3.22529661	     -0.35461860	      0.92809009	      0.33783708	     -0.88009720	      8.06873187	     -4.70810777	    -16.47042087	     11.76229488	      0.44995120	      2.74620793	      9.31530514	     -6.25678807	     -7.12456833	    -61.23610473	      8.42985954	     -5.35764678	      6.09756249	    -11.92613547	      4.54752833	     -1.01870789
      0.92533333	      6.24556016	     -1.02472445	      2.84959302	     -0.34999724	      0.92868596	      0.33859415	     -1.42669631	      7.98104250	     -4.40148286	    -16.05248410	     11.74018800	      0.62108643	      2.78682452	      9.77800220	     -6.13592068	     -7.53532600	    -60.52430818	      8.64730703	     -5.54042676	      6.01152060	    -11.97933475	      4.37086409	     -0.86345617
